<svg width="24" height="24" viewBox="0 0 24 24" fill="none" xmlns="http://www.w3.org/2000/svg">
<path fill-rule="evenodd" clip-rule="evenodd" d="M15.8129 1.43179C12.9602 1.11482 11.1712 2.30134 10.2335 3.55625C9.84052 4.08225 9.85373 4.72231 10.1735 5.20122C10.4785 5.65793 11.0243 5.91983 11.6116 5.87556C15.0851 5.61375 17.736 4.40058 19.1906 3.26925C19.2151 3.25015 19.2385 3.22955 19.2604 3.20755C19.3016 3.16644 19.3389 3.13407 19.3832 3.09568L19.3861 3.09317C19.4048 3.07698 19.4358 3.05022 19.464 3.02344L19.4657 3.02183C19.4868 3.00177 19.5609 2.93153 19.6217 2.83025C19.6826 2.72866 19.8561 2.3637 19.596 1.99097C19.4242 1.74496 19.1705 1.68607 19.1302 1.67672L19.1267 1.6759C19.0093 1.64742 18.8735 1.64285 18.803 1.64048L18.7935 1.64016C18.7465 1.63853 18.6916 1.63713 18.6278 1.6355C18.1947 1.62444 17.3534 1.60295 15.8129 1.43179ZM11.4989 4.3798L11.4918 4.38023C12.147 3.54838 13.4185 2.67498 15.6473 2.92262C16.0473 2.96707 16.4031 3.00185 16.7186 3.02919C15.4215 3.66104 13.649 4.21774 11.4989 4.3798Z" fill="#363538"/>
<path fill-rule="evenodd" clip-rule="evenodd" d="M13.2751 21.0845C13.5391 21.2476 13.8481 21.4387 14.2302 21.6296C14.5164 21.7727 15.238 22.092 16.7301 21.6296C20.9832 20.3118 22.505 15.0925 21.2301 10.6298C20.3438 7.52773 17.1007 4.42556 13.5896 6.1975C12.7342 6.62923 11.6964 6.66812 10.8334 6.25152C6.92398 4.36416 3.62518 7.49693 2.73014 10.6298C1.43395 15.1668 3.37221 20.4762 7.73013 21.6293C8.87238 21.9316 9.6851 21.7496 10.0771 21.6618C10.1386 21.648 10.1897 21.6366 10.2302 21.6296C10.6516 21.5577 11.0432 21.2866 11.3924 21.0448C11.7097 20.8251 11.9921 20.6297 12.2302 20.6297C12.5392 20.6297 12.8482 20.8206 13.2751 21.0845ZM4.17243 11.0419C4.53332 9.77865 5.38528 8.52958 6.47655 7.81071C7.50378 7.13403 8.74641 6.90962 10.1813 7.60234C11.4956 8.23683 13.025 8.16267 14.2655 7.53662C15.447 6.94031 16.5497 7.1334 17.5403 7.8192C18.5868 8.54365 19.4299 9.78916 19.7878 11.0419C20.3448 12.9915 20.2795 15.0831 19.6469 16.787C19.021 18.4729 17.8794 19.7032 16.2862 20.1969C15.7008 20.3782 15.3497 20.3812 15.1759 20.364C15.0223 20.3488 14.9523 20.3137 14.9048 20.2899L14.9009 20.288C14.5844 20.1297 14.351 19.9856 14.0996 19.8303C14.0086 19.7741 13.915 19.7163 13.8145 19.6559L13.8031 19.6491C13.5139 19.4755 12.9377 19.1297 12.2302 19.1297C11.7085 19.1297 11.2925 19.3426 11.0863 19.4581C10.8853 19.5708 10.6801 19.7133 10.5393 19.811L10.4915 19.8441C10.3221 19.9612 10.2055 20.0382 10.1007 20.0947C10.0203 20.1379 9.98136 20.1495 9.97531 20.1513C9.97491 20.1515 9.97543 20.1513 9.97531 20.1513C9.82136 20.1777 9.7297 20.1996 9.65168 20.2182C9.53708 20.2456 9.45025 20.2663 9.23205 20.2855C8.96008 20.3095 8.58603 20.3042 8.11384 20.1792C6.47067 19.7444 5.21518 18.5156 4.49013 16.8113C3.76025 15.0957 3.61666 12.9872 4.17243 11.0419Z" fill="#363538"/>
</svg>
