<svg width="24" height="24" viewBox="0 0 24 24" fill="none" xmlns="http://www.w3.org/2000/svg">
<path d="M8.62404 3.08396C8.39427 2.73932 7.92862 2.64619 7.58397 2.87595C7.23933 3.10571 7.1462 3.57137 7.37596 3.91601C7.50764 4.11353 7.69588 4.46898 7.80435 4.84524C7.91919 5.24359 7.90305 5.51684 7.82918 5.66458C7.58039 6.16216 7.44001 6.74703 7.35967 7.24243C7.27815 7.74517 7.25 8.21033 7.25 8.49999C7.25 8.9142 7.58579 9.24999 8 9.24999C8.41421 9.24999 8.75 8.9142 8.75 8.49999C8.75 8.28965 8.77185 7.9048 8.84033 7.48254C8.90999 7.05295 9.01961 6.63782 9.17082 6.3354C9.49695 5.68314 9.39748 4.95639 9.24565 4.42973C9.08746 3.88099 8.82569 3.38645 8.62404 3.08396Z" fill="#363538"/>
<path fill-rule="evenodd" clip-rule="evenodd" d="M12 9.74999C7.16751 9.74999 3.25 13.6675 3.25 18.5H2.75C2.33579 18.5 2 18.8358 2 19.25C2 19.6642 2.33579 20 2.75 20H21.25C21.6642 20 22 19.6642 22 19.25C22 18.8358 21.6642 18.5 21.25 18.5H20.75C20.75 13.6675 16.8325 9.74999 12 9.74999ZM12 11.25C7.99594 11.25 4.75 14.4959 4.75 18.5H19.25C19.25 14.4959 16.0041 11.25 12 11.25Z" fill="#363538"/>
<path d="M11.584 2.87595C11.9286 2.64619 12.3943 2.73932 12.624 3.08396C12.8257 3.38645 13.0875 3.88099 13.2457 4.42973C13.3975 4.95639 13.497 5.68314 13.1708 6.3354C13.0196 6.63782 12.91 7.05295 12.8403 7.48254C12.7719 7.9048 12.75 8.28965 12.75 8.49999C12.75 8.9142 12.4142 9.24999 12 9.24999C11.5858 9.24999 11.25 8.9142 11.25 8.49999C11.25 8.21033 11.2781 7.74517 11.3597 7.24243C11.44 6.74703 11.5804 6.16216 11.8292 5.66458C11.9031 5.51684 11.9192 5.24359 11.8043 4.84524C11.6959 4.46898 11.5076 4.11353 11.376 3.91601C11.1462 3.57137 11.2393 3.10571 11.584 2.87595Z" fill="#363538"/>
<path d="M16.624 3.08396C16.3943 2.73932 15.9286 2.64619 15.584 2.87595C15.2393 3.10571 15.1462 3.57137 15.376 3.91601C15.5076 4.11353 15.6959 4.46898 15.8043 4.84524C15.9192 5.24359 15.9031 5.51684 15.8292 5.66458C15.5804 6.16216 15.44 6.74703 15.3597 7.24243C15.2781 7.74517 15.25 8.21033 15.25 8.49999C15.25 8.9142 15.5858 9.24999 16 9.24999C16.4142 9.24999 16.75 8.9142 16.75 8.49999C16.75 8.28965 16.7719 7.9048 16.8403 7.48254C16.91 7.05295 17.0196 6.63782 17.1708 6.3354C17.497 5.68314 17.3975 4.95639 17.2457 4.42973C17.0875 3.88099 16.8257 3.38645 16.624 3.08396Z" fill="#363538"/>
</svg>
