<svg width="24" height="24" viewBox="0 0 24 24" fill="none" xmlns="http://www.w3.org/2000/svg">
<path fill-rule="evenodd" clip-rule="evenodd" d="M3.55 13.0961C3.921 13.4671 4.5225 13.4671 4.8935 13.0961L8.46443 9.52514L14.4748 15.5355L10.9039 19.1064C10.5329 19.4774 10.5329 20.079 10.9039 20.45L12.0353 21.5813C12.4063 21.9523 13.0078 21.9523 13.3788 21.5813L14.1212 20.8389L14.8637 21.5813C15.2347 21.9523 15.8362 21.9523 16.2072 21.5813L16.9496 20.8389L17.6921 21.5813C18.0631 21.9523 18.6646 21.9523 19.0356 21.5813L21.5812 19.0357C21.9522 18.6647 21.9522 18.0632 21.5812 17.6922L20.8387 16.9498L21.5812 16.2073C21.9522 15.8363 21.9522 15.2348 21.5812 14.8638L20.8387 14.1213L21.5812 13.3789C21.9522 13.0079 21.9522 12.4064 21.5812 12.0354L20.4498 10.904C20.0788 10.533 19.4773 10.533 19.1063 10.904L15.5355 14.4749L9.52509 8.46448L13.0959 4.89363C13.4669 4.52263 13.4669 3.92112 13.0959 3.55012L11.9646 2.41875C11.5936 2.04775 10.9921 2.04775 10.6211 2.41875L9.87861 3.16121L9.13614 2.41875C8.76515 2.04775 8.16364 2.04775 7.79264 2.41875L7.05018 3.16121L6.30772 2.41875C5.93672 2.04775 5.33521 2.04775 4.96421 2.41875L2.41863 4.96434C2.04763 5.33533 2.04763 5.93684 2.41863 6.30784L3.16109 7.0503L2.41863 7.79276C2.04763 8.16376 2.04763 8.76527 2.41863 9.13627L3.16109 9.87873L2.41863 10.6212C2.04763 10.9922 2.04763 11.5937 2.41863 11.9647L3.55 13.0961ZM4.22175 11.6465L3.8682 11.2929L4.61066 10.5505C4.98166 10.1795 4.98166 9.57797 4.61066 9.20698L3.8682 8.46451L4.61066 7.72205C4.98166 7.35105 4.98166 6.74955 4.61066 6.37855L3.8682 5.63609L5.63597 3.86832L6.37843 4.61078C6.74943 4.98178 7.35093 4.98178 7.72193 4.61078L8.46439 3.86832L9.20685 4.61078C9.57785 4.98178 10.1794 4.98178 10.5504 4.61078L11.2928 3.86832L11.6464 4.22187L4.22175 11.6465ZM12.3535 19.7782L12.707 20.1318L13.4495 19.3893C13.8205 19.0183 14.422 19.0183 14.793 19.3893L15.5354 20.1318L16.2779 19.3893C16.6489 19.0183 17.2504 19.0183 17.6214 19.3893L18.3639 20.1318L20.1316 18.364L19.3892 17.6215C19.0182 17.2505 19.0182 16.649 19.3892 16.278L20.1316 15.5356L19.3892 14.7931C19.0182 14.4221 19.0182 13.8206 19.3892 13.4496L20.1316 12.7071L19.7781 12.3536L12.3535 19.7782Z" fill="#363538"/>
</svg>
