<svg width="24" height="24" viewBox="0 0 24 24" fill="none" xmlns="http://www.w3.org/2000/svg">
<path d="M10.56 16.92L10.96 16.3866C11.48 15.6933 12.52 15.6933 13.04 16.3866L13.44 16.92C14.0828 17.777 13.4713 19 12.4 19H11.6C10.5288 19 9.91727 17.777 10.56 16.92Z" fill="#363538"/>
<path fill-rule="evenodd" clip-rule="evenodd" d="M3.83261 8.5339L9.5012 3.99902C10.9621 2.83032 13.0379 2.83032 14.4988 3.99902L20.1674 8.5339C21.2989 9.43914 21.8524 10.8856 21.6142 12.315L20.5571 18.6576C20.2356 20.5863 18.5668 22 16.6115 22H7.38849C5.43314 22 3.76438 20.5863 3.44292 18.6576L2.38581 12.315C2.14758 10.8856 2.70105 9.43914 3.83261 8.5339ZM4.76965 9.7052L10.4382 5.17033C11.3513 4.43989 12.6487 4.43989 13.5617 5.17033L19.2303 9.7052C19.9375 10.271 20.2835 11.175 20.1346 12.0684L19.0775 18.411C18.8766 19.6165 17.8336 20.5 16.6115 20.5H7.38849C6.1664 20.5 5.12342 19.6165 4.92251 18.411L3.8654 12.0684C3.71651 11.175 4.06243 10.271 4.76965 9.7052Z" fill="#363538"/>
</svg>
