<svg width="24" height="24" viewBox="0 0 24 24" fill="none" xmlns="http://www.w3.org/2000/svg">
<path d="M12.75 13C12.75 12.5858 12.4142 12.25 12 12.25C11.5858 12.25 11.25 12.5858 11.25 13V17C11.25 17.4142 11.5858 17.75 12 17.75C12.4142 17.75 12.75 17.4142 12.75 17V13Z" fill="#363538"/>
<path fill-rule="evenodd" clip-rule="evenodd" d="M3.83261 8.5339L9.5012 3.99902C10.9621 2.83032 13.0379 2.83032 14.4988 3.99902L20.1674 8.5339C21.2989 9.43914 21.8524 10.8856 21.6142 12.315L20.5571 18.6576C20.2356 20.5863 18.5668 22 16.6115 22H7.38849C5.43314 22 3.76438 20.5863 3.44292 18.6576L2.38581 12.315C2.14758 10.8856 2.70105 9.43914 3.83261 8.5339ZM4.76965 9.7052L10.4382 5.17033C11.3513 4.43989 12.6487 4.43989 13.5617 5.17033L19.2303 9.7052C19.9375 10.271 20.2835 11.175 20.1346 12.0684L19.0775 18.411C18.8766 19.6165 17.8336 20.5 16.6115 20.5H7.38849C6.1664 20.5 5.12342 19.6165 4.92251 18.411L3.8654 12.0684C3.71651 11.175 4.06243 10.271 4.76965 9.7052Z" fill="#363538"/>
</svg>
