<svg width="24" height="24" viewBox="0 0 24 24" fill="none" xmlns="http://www.w3.org/2000/svg">
<path d="M7 3.25C4.37665 3.25 2.25 5.37665 2.25 8V12.9888C2.25 15.0661 3.93393 16.75 6.01117 16.75C6.56978 16.75 7.10861 16.9568 7.52381 17.3305L8 17.759V15.8188C7.40694 15.4494 6.71859 15.25 6.01117 15.25C4.76236 15.25 3.75 14.2376 3.75 12.9888V8C3.75 6.20507 5.20507 4.75 7 4.75H14C15.7949 4.75 17.25 6.20507 17.25 8V9H18.75V8C18.75 5.37665 16.6234 3.25 14 3.25H7Z" fill="#363538"/>
<path d="M12 16C12.4142 16 12.75 15.6642 12.75 15.25C12.75 14.8358 12.4142 14.5 12 14.5C11.5858 14.5 11.25 14.8358 11.25 15.25C11.25 15.6642 11.5858 16 12 16Z" fill="#363538"/>
<path d="M15.75 15.25C15.75 15.6642 15.4142 16 15 16C14.5858 16 14.25 15.6642 14.25 15.25C14.25 14.8358 14.5858 14.5 15 14.5C15.4142 14.5 15.75 14.8358 15.75 15.25Z" fill="#363538"/>
<path d="M18 16C18.4142 16 18.75 15.6642 18.75 15.25C18.75 14.8358 18.4142 14.5 18 14.5C17.5858 14.5 17.25 14.8358 17.25 15.25C17.25 15.6642 17.5858 16 18 16Z" fill="#363538"/>
<path fill-rule="evenodd" clip-rule="evenodd" d="M8.25 12C8.25 10.4812 9.48122 9.25 11 9.25H19C20.5188 9.25 21.75 10.4812 21.75 12V17.1911C21.75 18.9357 20.3357 20.35 18.5911 20.35C18.1812 20.35 17.7859 20.5017 17.4813 20.7759L16.8397 21.3533C15.7938 22.2946 14.2062 22.2946 13.1603 21.3533L12.5187 20.7759C12.2141 20.5017 11.8188 20.35 11.4089 20.35C9.6643 20.35 8.25 18.9357 8.25 17.1911V12ZM11 10.75C10.3096 10.75 9.75 11.3096 9.75 12V17.1911C9.75 18.1073 10.4927 18.85 11.4089 18.85C12.1893 18.85 12.9421 19.1389 13.5222 19.6609L14.1638 20.2384C14.6392 20.6662 15.3608 20.6662 15.8362 20.2384L16.4778 19.6609C17.0579 19.1389 17.8107 18.85 18.5911 18.85C19.5073 18.85 20.25 18.1073 20.25 17.1911V12C20.25 11.3096 19.6904 10.75 19 10.75H11Z" fill="#363538"/>
</svg>
