<svg width="24" height="24" viewBox="0 0 24 24" fill="none" xmlns="http://www.w3.org/2000/svg">
<path fill-rule="evenodd" clip-rule="evenodd" d="M3.6644 8.66847L9.5012 3.99902C10.9621 2.83032 13.0379 2.83032 14.4988 3.99902L20.3356 8.66847C21.3759 9.50076 21.9336 10.7964 21.823 12.1241L21.1528 20.1661C21.0664 21.2027 20.1999 22 19.1597 22H15.2748C13.9097 22 12.9458 20.6626 13.3775 19.3675L13.6304 18.6089C14.0582 17.3254 13.1029 16 11.75 16C10.3971 16 9.44179 17.3254 9.86961 18.6089L10.1225 19.3675C10.5542 20.6626 9.59025 22 8.22513 22H4.84025C3.80007 22 2.93354 21.2027 2.84716 20.1661L2.17699 12.1241C2.06635 10.7964 2.62403 9.50076 3.6644 8.66847ZM4.60144 9.83977L10.4382 5.17033C11.3513 4.43989 12.6487 4.43989 13.5617 5.17033L19.3985 9.83977C20.0488 10.36 20.3973 11.1697 20.3282 11.9996L19.658 20.0415C19.6364 20.3007 19.4198 20.5 19.1597 20.5H15.2748C14.9336 20.5 14.6926 20.1656 14.8005 19.8419L15.0534 19.0832C15.805 16.8285 14.1267 14.5 11.75 14.5C9.37326 14.5 7.695 16.8285 8.44658 19.0832L8.69947 19.8419C8.80739 20.1657 8.56641 20.5 8.22513 20.5H4.84025C4.5802 20.5 4.36357 20.3007 4.34197 20.0415L3.67181 11.9996C3.60266 11.1697 3.95121 10.36 4.60144 9.83977Z" fill="#363538"/>
</svg>
