<svg width="24" height="24" viewBox="0 0 24 24" fill="none" xmlns="http://www.w3.org/2000/svg">
<g id="iconixto/linear/mail-tick">
<g id="icon">
<path d="M19.0541 7.50652L22.0303 4.53033C22.3232 4.23744 22.3232 3.76256 22.0303 3.46967C21.7374 3.17678 21.2626 3.17678 20.9697 3.46967L18.5056 5.93371L17.5115 5.00661C17.2086 4.72411 16.734 4.74066 16.4515 5.04359C16.169 5.34652 16.1856 5.8211 16.4885 6.10361L18.0123 7.52469C18.3078 7.80025 18.7684 7.79222 19.0541 7.50652Z" fill="#363538"/>
<path d="M15 4.75C15 4.33579 14.6642 4 14.25 4H6C3.79086 4 2 5.79086 2 8V16C2 18.2091 3.79086 20 6 20H18C20.2091 20 22 18.2091 22 16V10.75C22 10.3358 21.6642 10 21.25 10C20.8358 10 20.5 10.3358 20.5 10.75V16C20.5 17.3807 19.3807 18.5 18 18.5H6C4.61929 18.5 3.5 17.3807 3.5 16V8C3.5 6.61929 4.61929 5.5 6 5.5H14.25C14.6642 5.5 15 5.16421 15 4.75Z" fill="#363538"/>
<path d="M16.6875 7.99997C16.4514 7.99997 16.2291 8.11111 16.0875 8.29997L14.6 10.2833C13.3 12.0166 10.7 12.0166 9.39998 10.2833L6.59998 6.54998C6.35146 6.21861 5.88135 6.15145 5.54998 6.39998C5.21861 6.64851 5.15145 7.11861 5.39998 7.44998L8.19998 11.1833C10.1 13.7166 13.9 13.7166 15.8 11.1833L17.2875 9.19997C17.6583 8.70554 17.3055 7.99997 16.6875 7.99997Z" fill="#363538"/>
</g>
</g>
</svg>
