<svg width="24" height="24" viewBox="0 0 24 24" fill="none" xmlns="http://www.w3.org/2000/svg">
<path d="M15.0211 10.5394C15.319 10.2516 15.3272 9.77679 15.0394 9.47889C14.7516 9.18099 14.2768 9.17281 13.9789 9.46061L11.397 11.955L10.0234 10.6167C9.72673 10.3276 9.25189 10.3338 8.96283 10.6304C8.67376 10.9271 8.67993 11.402 8.9766 11.691L10.8713 13.5372C11.1617 13.8201 11.6243 13.8211 11.9158 13.5394L15.0211 10.5394Z" fill="#363538"/>
<path fill-rule="evenodd" clip-rule="evenodd" d="M12.9656 1.5611C12.343 1.32764 11.657 1.32764 11.0344 1.5611L5.03441 3.8111C3.96114 4.21357 3.25 5.23945 3.25 6.38584L3.25 12C3.25001 14.1021 4.70195 16.0706 6.23473 17.592C7.80226 19.1479 9.62746 20.4042 10.6932 21.0829C11.4877 21.589 12.4869 21.6144 13.3054 21.1363C14.3823 20.5073 16.2104 19.3338 17.7787 17.7956C19.3257 16.2785 20.75 14.2791 20.75 12V6.38585C20.75 5.23946 20.0389 4.21357 18.9656 3.8111L12.9656 1.5611ZM11.5611 2.96559C11.8441 2.85947 12.1559 2.85947 12.4389 2.96559L18.4389 5.21559C18.9269 5.39857 19.25 5.86486 19.25 6.38585V12C19.25 13.6603 18.1913 15.29 16.7284 16.7247C15.287 18.1384 13.5787 19.2396 12.5488 19.8411C12.2207 20.0328 11.8244 20.025 11.499 19.8177C10.4714 19.1633 8.7486 17.9737 7.29142 16.5274C5.79948 15.0465 4.75001 13.4564 4.75 12L4.75 6.38584C4.75 5.86486 5.07315 5.39857 5.56109 5.21559L11.5611 2.96559Z" fill="#363538"/>
</svg>
