<svg width="24" height="24" viewBox="0 0 24 24" fill="none" xmlns="http://www.w3.org/2000/svg">
<path fill-rule="evenodd" clip-rule="evenodd" d="M11.0292 4.02312C11.4833 3.32563 12.5167 3.32563 12.9708 4.02312L15.2972 7.59633C15.4534 7.83631 15.6953 8.00968 15.9749 8.08212L20.1385 9.16069C20.9512 9.37123 21.2705 10.3408 20.7385 10.9824L18.0127 14.2693C17.8296 14.4901 17.7372 14.7706 17.7538 15.0554L18.0006 19.2952C18.0488 20.1228 17.2128 20.722 16.4299 20.4211L12.4189 18.8793C12.1495 18.7757 11.8505 18.7757 11.5811 18.8793L7.57013 20.4211C6.78718 20.722 5.95118 20.1228 5.99936 19.2952L6.2462 15.0554C6.26277 14.7706 6.17039 14.4901 5.98732 14.2693L3.26155 10.9824C2.72948 10.3408 3.04881 9.37123 3.86153 9.16069L8.02508 8.08212C8.30471 8.00968 8.54659 7.83631 8.70283 7.59633L11.0292 4.02312ZM9.95989 8.41475L12 5.28123L14.0401 8.41475C14.4026 8.9715 14.9602 9.36877 15.5988 9.53419L19.2141 10.4707L16.858 13.3118C16.4341 13.8231 16.2176 14.4764 16.2563 15.1426L16.471 18.8299L12.9571 17.4792C12.3412 17.2425 11.6588 17.2425 11.0429 17.4792L7.52899 18.8299L7.74366 15.1426C7.78244 14.4764 7.56594 13.8231 7.14195 13.3118L4.78591 10.4707L8.40124 9.53419C9.03978 9.36877 9.59741 8.9715 9.95989 8.41475Z" fill="#363538"/>
</svg>
